<svg xmlns="http://www.w3.org/2000/svg" viewBox="0 0 100 100">
  <!-- Keyhole thermometer path -->
  <path d="M22,20 C22,15.6 25.6,12 30,12 C34.4,12 38,15.6 38,20 L38,55 C44.6,59.5 49,67.2 49,76 C49,86.5 40.5,95 30,95 C19.5,95 11,86.5 11,76 C11,67.2 15.4,59.5 22,55 Z" 
        fill="none" stroke="white" stroke-width="5" stroke-linejoin="round"/>
  <!-- Mercury -->
  <circle cx="30" cy="76" r="10" fill="white"/>
  <rect x="27" y="35" width="6" height="35" fill="white" rx="3"/>
  <!-- Wind Lines -->
  <line x1="58" y1="30" x2="92" y2="30" stroke="white" stroke-width="6" stroke-linecap="round"/>
  <line x1="58" y1="48" x2="86" y2="48" stroke="white" stroke-width="6" stroke-linecap="round"/>
  <line x1="58" y1="66" x2="92" y2="66" stroke="white" stroke-width="6" stroke-linecap="round"/>
</svg>
