<svg xmlns="http://www.w3.org/2000/svg" viewBox="0 0 100 100">
  <!-- Keyhole thermometer path -->
  <path d="M32,20 C32,15.6 35.6,12 40,12 C44.4,12 48,15.6 48,20 L48,55 C54.6,59.5 59,67.2 59,76 C59,86.5 50.5,95 40,95 C29.5,95 21,86.5 21,76 C21,67.2 25.4,59.5 32,55 Z" 
        fill="none" stroke="white" stroke-width="5" stroke-linejoin="round"/>
  <!-- Mercury -->
  <circle cx="40" cy="76" r="10" fill="white"/>
  <rect x="37" y="35" width="6" height="35" fill="white" rx="3"/>
  <!-- Droplet -->
  <path d="M78 25 C78 25 65 45 65 54 C65 63 71 69 78 69 C85 69 91 63 91 54 C91 45 78 25 78 25Z" 
        fill="none" stroke="white" stroke-width="5" stroke-linejoin="round"/>
</svg>
