<svg xmlns="http://www.w3.org/2000/svg" viewBox="0 0 100 100">
  <!-- Sun -->
  <circle cx="26" cy="26" r="12" fill="none" stroke="white" stroke-width="4"/>
  <line x1="26" y1="8"  x2="26" y2="3"  stroke="white" stroke-width="3" stroke-linecap="round"/>
  <line x1="26" y1="44" x2="26" y2="49" stroke="white" stroke-width="3" stroke-linecap="round"/>
  <line x1="8"  y1="26" x2="3"  y2="26" stroke="white" stroke-width="3" stroke-linecap="round"/>
  <line x1="44" y1="26" x2="49" y2="26" stroke="white" stroke-width="3" stroke-linecap="round"/>
  <line x1="12" y1="12" x2="8"  y2="8"  stroke="white" stroke-width="3" stroke-linecap="round"/>
  <line x1="40" y1="12" x2="44" y2="8"  stroke="white" stroke-width="3" stroke-linecap="round"/>
  <line x1="12" y1="40" x2="8"  y2="44" stroke="white" stroke-width="3" stroke-linecap="round"/>
  <line x1="40" y1="40" x2="44" y2="44" stroke="white" stroke-width="3" stroke-linecap="round"/>
  <!-- Rain drop -->
  <path d="M65 28 C65 28 42 60 42 73 C42 86 53 96 65 96 C77 96 88 86 88 73 C88 60 65 28 65 28Z"
        fill="none" stroke="white" stroke-width="5" stroke-linejoin="round"/>
</svg>
