<svg xmlns="http://www.w3.org/2000/svg" viewBox="0 0 24 24">
  <path fill="white" d="M12 7c-2.76 0-5 2.24-5 5s2.24 5 5 5 5-2.24 5-5-2.24-5-5-5zM2 13h2c.55 0 1-.45 1-1s-.45-1-1-1H2c-.55 0-1 .45-1 1s.45 1 1 1zm18 0h2c.55 0 1-.45 1-1s-.45-1-1-1h-2c-.55 0-1 .45-1 1s.45 1 1 1zM11 2v2c0 .55.45 1 1 1s1-.45 1-1V2c0-.55-.45-1-1-1s-1 .45-1 1zm0 18v2c0 .55.45 1 1 1s1-.45 1-1v-2c0-.55-.45-1-1-1s-1 .45-1 1zM5.99 4.58a.996.996 0 00-1.41 0 .996.996 0 000 1.41l1.06 1.06c.39.39 1.03.39 1.42 0s.39-1.03 0-1.42L5.99 4.58zm12.02 12.02a.996.996 0 00-1.41 0 .996.996 0 000 1.41l1.06 1.06c.39.39 1.03.39 1.42 0s.39-1.03 0-1.42l-1.06-1.06zm-1.06-10.6c-.39-.39-1.03-.39-1.42 0s-.39 1.03 0 1.42l1.06 1.06c.39.39 1.03.39 1.41 0a.996.996 0 000-1.41l-1.05-1.07zm-10.6 10.6c-.39-.39-1.03-.39-1.42 0s-.39 1.03 0 1.42l1.06 1.06c.39.39 1.03.39 1.41 0a.996.996 0 000-1.41l-1.05-1.07z"/>
</svg>
